<svg width="800" height="800" viewBox="0 0 800 800" fill="none" xmlns="http://www.w3.org/2000/svg">
  <rect width="800" height="800" fill="#000000"/>
  <rect x="56" y="56" width="688" height="688" rx="28" fill="#FFFFFF"/>
  <rect x="104" y="104" width="592" height="592" rx="22" fill="#000000"/>
  <path d="M104 454H696" stroke="#FFFFFF" stroke-opacity="0.12" stroke-width="2"/>
  <path d="M104 356H696" stroke="#FFFFFF" stroke-opacity="0.12" stroke-width="2"/>
  <path d="M164 514C228 428 277 384 339 384C400 384 458 432 530 432C582 432 626 406 654 378" stroke="#FFFFFF" stroke-width="5"/>
  <path d="M164 564C228 478 277 434 339 434C400 434 458 482 530 482C582 482 626 456 654 428" stroke="#1A8A47" stroke-width="5"/>
  <text x="146" y="172" fill="#FFFFFF" font-size="34" font-family="IBM Plex Mono, monospace" letter-spacing="5">FISHMANS</text>
  <text x="146" y="640" fill="#FFFFFF" font-size="56" font-family="Space Grotesk, sans-serif" font-weight="700">98.12.28</text>
  <text x="146" y="706" fill="#FFFFFF" font-size="40" font-family="Space Grotesk, sans-serif" font-weight="500">Otokotachi no Wakare</text>
</svg>
